<?xml version="1.0" encoding="UTF-8"?>
<!DOCTYPE svg PUBLIC "-//W3C//DTD SVG 1.1//EN" "http://www.w3.org/Graphics/SVG/1.1/DTD/svg11.dtd">
<!-- Creator: CorelDRAW X8 -->
<svg xmlns="http://www.w3.org/2000/svg" xml:space="preserve" width="3.32524in" height="3.02949in" version="1.1" style="shape-rendering:geometricPrecision; text-rendering:geometricPrecision; image-rendering:optimizeQuality; fill-rule:evenodd; clip-rule:evenodd"
viewBox="0 0 2207 2011"
 xmlns:xlink="http://www.w3.org/1999/xlink">
 <defs>
  <style type="text/css">
   <![CDATA[
    .fil6 {fill:black}
    .fil2 {fill:#040404}
    .fil1 {fill:#080808}
    .fil3 {fill:#202020}
    .fil4 {fill:#343434}
    .fil5 {fill:white}
    .fil7 {fill:#C5DAE1}
    .fil0 {fill:#DBF2F3}
    .fil8 {fill:#C5DAE1;fill-rule:nonzero}
   ]]>
  </style>
 </defs>
 <g id="Layer_x0020_1">
  <metadata id="CorelCorpID_0Corel-Layer"/>
  <path class="fil0" d="M1346 1856c-27,-12 -16,-17 -69,-26 -29,-4 -57,-7 -86,-7 -46,-1 -133,0 -159,33 32,44 106,36 153,52 -43,11 -184,-9 -178,-52 33,-71 312,-71 339,0z"/>
  <path class="fil1" d="M1738 1818l-319 -27 39 -8c14,-2 28,-2 42,-4 25,-2 63,-7 87,-6l32 -4c-11,-7 -12,-5 -23,-5 -50,4 -245,1 -278,-19l333 -26c22,21 2,23 70,44 136,42 236,99 192,-9 39,7 185,19 209,31l-129 20 202 24c10,4 6,2 12,7 -204,28 -440,15 -647,7l-20 0 -27 -7 26 -4 199 -14z"/>
  <path class="fil2" d="M1346 1856c-27,-71 -306,-71 -339,0 -6,43 135,63 178,52 -47,-16 -121,-8 -153,-52 26,-33 113,-34 159,-33 29,0 57,3 86,7 53,9 42,14 69,26zm28 83c-20,102 -305,76 -366,40 -21,-13 -27,-20 -27,-54 0,-18 -2,-57 1,-74 11,-81 256,-88 365,-36 23,10 28,18 28,50 -1,24 3,52 -1,74z"/>
  <path class="fil3" d="M1421 1999c11,-19 25,-15 52,-16 23,0 45,-2 68,-4 43,-2 84,-3 127,0l-247 20z"/>
  <path class="fil4" d="M1438 1875c4,-2 3,-3 11,-4l191 1 -157 11c-54,3 -37,7 -45,-8z"/>
  <path class="fil5" d="M913 1594c0,0 0,0 0,0zm561 -1011c5,1 10,2 15,4 -30,26 -29,51 -28,80 1,14 2,30 -6,48 -22,49 -14,85 -8,114 2,13 5,24 -1,28l-4 3c-12,9 -29,23 -44,33 -2,-5 -4,-11 -6,-17 -8,-26 -16,-56 -21,-74 -11,-45 -9,-79 3,-110 13,-33 37,-63 68,-99l1 -1c8,-9 20,-11 31,-9zm-152 -568c36,-11 54,-17 78,2l0 0c18,13 32,40 57,92 44,88 26,119 9,148l-2 4c4,1 9,2 13,2 26,4 54,8 89,29 20,13 32,25 43,36 11,10 21,20 43,30 23,11 41,21 57,32 16,11 29,23 44,38 63,65 27,131 3,173l-10 17 4 9c5,14 11,32 9,55 -1,27 -9,39 -16,50 -3,4 -5,8 -6,12 -1,8 0,17 0,26 1,16 2,32 -2,51 -10,46 -34,60 -60,74 -9,5 -19,11 -26,18l-2 2c-11,10 -37,26 -62,35 -25,8 -50,11 -71,1l-5 5 -2 2 0 0c-6,5 -10,8 -16,13l-11 8 -33 27 35 81 0 0c1,3 3,5 7,7 3,3 6,6 11,10l1 2 93 110 2 2c29,41 53,86 74,133 19,42 36,86 53,131 14,1 24,5 32,14 8,8 12,18 11,32 12,6 27,16 42,26 32,23 67,49 77,59 14,14 22,33 25,53 2,19 0,40 -7,60 -2,5 1,9 5,15 8,13 18,27 20,53l2 29 -28 1c-33,2 -130,-33 -175,-49l-14 -5c-42,-14 -48,-30 -54,-46 -1,-2 -2,-5 -9,-8 -67,-29 -81,-62 -96,-100 -6,-13 -11,-26 -19,-39 -6,-9 -21,-20 -36,-31 -7,-4 -14,-9 -21,-15 -38,-31 -76,-66 -109,-105 -30,-35 -57,-74 -77,-114l-10 -15c-9,-4 -18,-9 -26,-15 -8,-7 -16,-15 -24,-24l-4 -3c-5,27 -20,54 -67,77 -67,33 -96,12 -117,-5 -2,2 -4,4 -7,7 0,0 0,1 0,2 3,13 5,33 5,60l0 0c0,20 -6,41 -14,61 -11,27 -27,52 -35,61 -8,9 -15,14 -22,19 -7,5 -14,11 -22,20l-1 2 -31 31 -4 3 0 1c-7,5 -22,16 -44,2l-6 -4c-18,-20 -19,-37 -19,-55 0,-4 0,-8 -1,-11 -3,-5 -6,-9 -9,-14 -3,-6 -6,-13 -9,-20l0 0 -2 -6c-1,-1 -1,-2 -1,-3l-135 89 -1 1c-64,40 -106,67 -157,79 -51,11 -108,8 -198,-12 -45,-10 -88,-19 -129,-30 -42,-12 -83,-25 -127,-43 -19,-8 -32,-14 -44,-25 -13,-12 -21,-27 -27,-51 -8,-35 -5,-80 13,-116 7,-15 17,-28 29,-39 13,-11 28,-19 45,-23 29,-7 64,-3 105,18 31,15 63,30 96,43 31,12 62,23 94,33 16,5 32,9 49,13 16,4 32,7 48,10 40,8 69,11 95,8 26,-4 51,-14 82,-31 12,-7 32,-19 56,-33l-5 -2c-34,-10 -63,-33 -81,-67 -3,-6 -6,-13 -9,-20 -23,-66 -7,-102 10,-138 6,-12 11,-24 14,-36 0,-4 0,-4 0,-5 -6,-16 -11,-30 47,-135 26,-49 60,-95 93,-140l17 -24c-25,-91 -10,-171 7,-259l4 -20c10,-55 17,-92 31,-125 14,-35 34,-64 71,-103 26,-28 62,-49 102,-64 36,-13 76,-21 118,-25 -1,-6 -2,-13 -3,-19 -2,-16 -5,-31 -4,-48 2,-23 5,-27 15,-40l0 0c4,-7 12,-16 23,-39 41,-81 76,-69 117,-55 12,5 26,9 39,5z"/>
  <path class="fil6" d="M1162 236c-93,6 -178,31 -227,83 -69,73 -75,107 -95,214 -18,97 -38,182 -7,279 -40,55 -85,113 -117,172 -73,134 -37,95 -44,132 -11,50 -53,80 -25,159 27,75 109,97 184,58l3 1c-64,41 -133,81 -161,97 -68,39 -110,43 -195,26 -32,-6 -66,-14 -100,-24 -66,-20 -132,-47 -194,-77 -129,-64 -170,57 -153,129 9,36 22,43 55,57 84,34 161,51 251,71 172,38 211,15 335,-64l169 -112c1,12 3,24 6,35 1,4 3,7 4,10 4,12 10,22 17,30 0,1 1,2 1,4 7,19 -4,38 14,57 8,4 13,-1 15,-2l30 -31c17,-21 30,-25 45,-41 11,-11 41,-63 41,-103 0,-41 -4,-63 -10,-71 11,-9 20,-16 23,-20 33,-36 31,48 122,2 68,-34 51,-78 56,-114l46 45c14,16 28,30 51,37l-1 0 15 24c42,81 108,154 180,211 20,16 50,33 62,52 32,51 23,94 102,129 41,17 7,34 62,53 34,12 148,54 178,53 -3,-42 -34,-47 -23,-79 10,-32 8,-66 -12,-85 -16,-16 -104,-81 -129,-90 6,-30 2,-35 -33,-33 -36,-103 -75,-198 -130,-276l-93 -110c-10,-10 -18,-13 -24,-26l-42 -101 49 -39c12,-10 17,-14 25,-21 14,-12 12,-11 30,-17 25,27 94,-9 111,-26 30,-30 68,-27 79,-79 6,-27 -1,-51 2,-74 3,-24 20,-26 22,-60 2,-30 -14,-51 -13,-64 1,-26 81,-101 14,-170 -27,-27 -49,-44 -93,-64 -46,-21 -47,-42 -89,-67 -49,-31 -88,-20 -122,-36 3,-48 58,-50 4,-159 -48,-97 -49,-97 -102,-79 -58,18 -93,-59 -140,35 -28,55 -34,42 -35,69 -2,31 10,60 6,90zm-212 1020l-28 -11c12,-13 26,-29 37,-49 5,19 8,37 9,43 -3,4 -10,10 -18,17zm580 -675c-24,-22 -76,-43 -109,-6 -66,76 -103,132 -77,234 9,31 27,96 40,124 17,-6 59,-39 79,-54 39,-30 -18,-73 17,-153 28,-63 -23,-94 56,-137 -5,-7 3,1 -6,-8z"/>
  <g id="_2872088319040">
   <path class="fil7" d="M939 1387c-26,1 -10,0 -16,-6l0 0 16 6z"/>
   <path class="fil8" d="M954 1373c2,-3 2,-7 -1,-9 -1,-1 -2,-2 -3,-2l-14 10c8,2 15,4 18,1z"/>
   <path class="fil8" d="M958 1412c3,-3 2,-7 -1,-9 -6,-5 -18,-7 -30,-8 -10,-1 -21,0 -28,2l-8 6c-1,2 -1,3 0,5 3,6 25,0 36,0 10,1 27,9 31,4z"/>
   <path class="fil8" d="M948 1430c2,0 5,-2 5,-5 0,-2 -2,-5 -5,-5l-43 -2c-2,0 -5,2 -5,5 0,2 2,5 5,5l43 2z"/>
   <path class="fil8" d="M950 1391c2,-3 1,-6 -1,-8 -4,-4 -12,-6 -20,-7l-17 12c3,0 7,-1 10,0 9,0 24,7 28,3z"/>
   <path class="fil7" d="M1135 1190c27,33 -15,70 -50,53 11,-5 29,-8 38,-17 12,-12 7,-22 12,-36z"/>
   <path class="fil7" d="M916 435c24,-87 105,-161 217,-153 -10,9 -41,23 -57,31 -97,45 -108,77 -160,122z"/>
   <path class="fil7" d="M1035 804c6,6 6,5 11,13 7,11 9,21 14,33 -25,-14 -31,-32 -73,-39 -42,-8 -64,5 -96,18 -9,-16 -9,-19 -8,-39 23,-5 44,-16 72,-15 22,1 65,12 80,29z"/>
   <path class="fil7" d="M1687 654l4 10c-20,-6 -75,-12 -95,-11 -26,3 -56,16 -72,17 3,-35 26,-44 72,-46 34,-3 80,10 91,30z"/>
   <path class="fil7" d="M687 1268c-16,-11 -26,-25 -26,-48 0,-17 6,-43 19,-48l7 96z"/>
   <path class="fil7" d="M1205 283c-14,-20 -24,-40 0,-58 7,15 15,41 0,58z"/>
   <path class="fil6" d="M957 1800c-37,3 -135,-1 -162,-17 16,-2 146,8 162,17z"/>
   <path class="fil7" d="M1035 773c-11,22 -11,-11 -70,-20 -31,-4 -69,5 -82,27 -26,-38 -6,-195 13,-231l4 161c67,-13 55,0 97,17 6,-13 9,-29 13,-43 4,-17 5,-29 17,-43 -1,43 -6,94 8,132z"/>
   <path class="fil7" d="M1129 1062c-37,-6 -59,-17 -104,-8 -31,7 -42,14 -64,29 -18,12 1,5 -19,9 -12,-75 176,-95 187,-30z"/>
   <path class="fil7" d="M1588 575c-24,-4 77,-98 83,13 -32,-7 -44,-13 -83,-13z"/>
   <path class="fil7" d="M1502 904l-37 33c-15,13 -39,26 -63,54 -28,9 -212,179 -252,184 -5,-29 -2,-22 37,-51 43,-33 310,-230 341,-244l-26 24z"/>
   <g>
    <path class="fil7" d="M369 1594c1,-35 17,-112 34,-134l18 5c-4,21 -38,120 -52,129z"/>
    <path class="fil7" d="M275 1452c3,-10 5,-18 8,-23 1,-3 2,-6 4,-5l20 8c-6,20 -44,124 -57,132 -11,-25 16,-84 25,-112z"/>
    <path class="fil7" d="M263 1411c-11,35 -36,111 -60,137 6,-62 25,-94 39,-145l21 8z"/>
    <path class="fil7" d="M329 1585c-3,-6 -1,8 -4,-10 -3,-26 23,-107 31,-129l22 9 -49 130z"/>
   </g>
   <path class="fil7" d="M1361 1340c39,-23 55,-1 111,-46 30,-24 32,-36 55,-67 9,11 32,50 33,67 1,35 -59,86 -106,97 -49,11 -70,-17 -93,-51z"/>
   <path class="fil7" d="M1049 973c-14,1 -28,0 -43,2 -16,1 -26,7 -39,8 -17,-27 -44,-96 -12,-126 31,4 57,83 94,116z"/>
   <path class="fil7" d="M1303 406c-63,-23 -69,-111 -43,-140 30,-34 36,18 34,45 -2,43 0,54 9,95z"/>
   <path class="fil7" d="M1357 178c-33,-1 -61,-8 -87,-19 -24,-10 -53,-25 -60,-45 22,9 45,23 70,35 19,8 65,21 77,29z"/>
   <path class="fil7" d="M1566 1513c-11,-5 -101,-81 -93,-85 21,-11 21,-3 31,9l62 76z"/>
   <path class="fil7" d="M1635 1443c-3,-1 -80,-91 -57,-104 12,5 10,5 18,24l39 80z"/>
   <path class="fil7" d="M1867 1701c-7,19 -12,25 -37,30 10,-13 27,-23 37,-30z"/>
   <path class="fil7" d="M1693 1593c4,-9 -9,-1 10,-13 12,-7 5,-3 18,-5l-12 11c-7,5 -8,5 -16,7z"/>
   <path class="fil7" d="M1670 1585c3,-10 -4,-3 5,-10 5,-4 6,-3 14,-5 -4,7 2,3 -6,9 -4,2 -9,4 -13,6z"/>
   <path class="fil7" d="M463 1256l-4 -11c4,8 2,2 4,11z"/>
   <path class="fil7" d="M801 1432l0 0 0 0c-50,33 -98,64 -140,88 -87,50 -51,35 -146,67 4,-12 23,-16 35,-21 69,-33 179,-107 237,-150 4,-3 7,-6 11,-8l0 0 0 0c23,-17 46,-33 69,-49l41 -30 8 -6 73 -52 1 0 23 -17c13,-9 19,-18 33,-21l7 15 -28 28c-22,15 -46,32 -71,49l0 0 -113 79c-13,10 -27,19 -40,28z"/>
   <path class="fil7" d="M833 874l22 45 0 0 -8 -12c-51,68 -65,86 -104,165 -30,62 -46,76 68,149 -55,-9 -93,-53 -124,-94 -2,-22 56,-121 69,-141 24,-36 51,-80 77,-112z"/>
   <path class="fil7" d="M839 832l-15 19c3,10 5,11 9,23 -5,7 -11,15 -17,22l20 26 11 -15 16 23c14,22 37,55 61,83 3,-5 5,-9 6,-12 13,-18 -53,-68 -91,-169z"/>
   <path class="fil7" d="M1330 1300l-8 -22c9,1 18,1 28,-1 72,-7 101,-53 131,-98 21,18 13,30 -3,52 -41,55 -78,71 -148,69z"/>
   <path class="fil8" d="M1703 1546c0,-5 -5,-9 -10,-9 -10,0 -25,8 -38,18 -15,11 -28,26 -32,35 -1,4 1,10 6,11 8,4 26,-23 37,-31 11,-9 37,-16 37,-24z"/>
   <path class="fil8" d="M1722 1562c0,-5 -4,-9 -9,-9 -10,1 -25,9 -38,19 -15,11 -28,25 -32,34 -2,5 1,10 5,12 9,3 27,-23 38,-32 11,-8 37,-15 36,-24z"/>
   <path class="fil8" d="M1744 1579c0,-4 -4,-8 -8,-8 -9,1 -23,8 -35,17 -13,10 -25,22 -28,31 -1,4 1,9 5,10 8,3 23,-20 33,-28 10,-8 33,-14 33,-22z"/>
   <path class="fil8" d="M1779 1613c0,-5 -3,-8 -8,-8 -9,0 -23,7 -34,16 -13,10 -25,23 -29,31 -1,4 1,9 5,11 8,3 23,-21 34,-29 10,-7 33,-13 32,-21z"/>
   <path class="fil8" d="M1784 1638c3,-2 3,-6 1,-9 -2,-2 -6,-3 -9,-1l-42 32c-2,2 -3,6 -1,9 2,3 6,3 9,1l42 -32z"/>
   <path class="fil8" d="M1755 1600c-1,-4 -4,-7 -8,-7 -8,0 -20,6 -30,14 -12,9 -22,20 -25,27 -2,4 0,8 4,10 7,2 21,-18 30,-25 8,-7 29,-12 29,-19z"/>
  </g>
 </g>
</svg>
